<svg width="235" height="234" viewBox="0 0 235 234" fill="none" xmlns="http://www.w3.org/2000/svg">
<path d="M117.5 234C182.393 234 235 181.617 235 117C235 52.3827 182.393 0 117.5 0C52.6065 0 0 52.3827 0 117C0 181.617 52.6065 234 117.5 234Z" fill="#2776A3"/>
<path d="M142.307 36.5625C113.887 36.5625 89.748 58.3245 86.715 86.3387C58.5664 89.3661 36.7188 113.402 36.7188 141.694C36.7265 156.475 42.626 170.648 53.1213 181.1C63.6166 191.552 77.8493 197.428 92.6928 197.438C121.113 197.438 145.347 175.676 148.285 147.661C176.426 144.634 198.281 120.598 198.281 92.3057C198.273 77.5253 192.374 63.3524 181.879 52.9004C171.383 42.4485 157.151 36.5722 142.307 36.5625ZM185.165 98.5432C183.768 107.684 179.472 116.141 172.906 122.68C166.34 129.218 157.847 133.495 148.667 134.886V98.5432H185.165ZM49.8347 135.457C51.2135 126.298 55.5006 117.82 62.0683 111.263C68.636 104.706 77.1393 100.415 86.3331 99.0186V135.362H49.8347V135.457ZM135.558 148.034C134.042 158.273 128.877 167.627 121.007 174.387C113.136 181.147 103.087 184.862 92.6928 184.853C82.3011 184.862 72.2529 181.148 64.3841 174.389C56.5152 167.63 51.351 158.278 49.8347 148.042H135.558V148.034ZM136.036 98.5432V135.362H98.9644V98.5432H136.036ZM185.165 85.9657H99.4417C100.958 75.727 106.123 66.3732 113.993 59.6133C121.864 52.8533 131.913 49.1384 142.307 49.1473C152.699 49.1384 162.747 52.8525 170.616 59.6111C178.485 66.3697 183.649 75.7216 185.165 85.9584V85.9657Z" fill="white"/>
</svg>
